# MagicaVoxel @ Ephtracy

# group
o 

# material
mtllib Ground_1-1.mtl
usemtl palette

# normals
vn -1 0 0
vn 1 0 0
vn 0 0 1
vn 0 0 -1
vn 0 -1 0
vn 0 1 0

# texcoords
vt 0.970703 0.5
vt 0.974609 0.5

# verts
v 3.1 1.5 -2
v 3.1 1.5 -6
v 3.1 3.5 -2
v 3.1 3.5 -6
v 3.3 2.5 -2
v 3.3 2.5 -5.8
v 3.3 3.5 -2
v 3.3 3.5 -5.8
v 7.1 1.5 -2
v 7.1 1.5 -6
v 7.1 2.3 -2
v 7.1 2.3 -5.8
v 7.1 2.5 -2
v 7.1 2.5 -5.8
v 7.1 3.5 -5.8
v 7.1 3.5 -6
v 3.1 1.5 -2
v 3.1 3.5 -2
v 3.3 2.3 -2
v 3.3 2.5 -2
v 3.3 3.5 -2
v 7.1 1.5 -2
v 7.1 2.3 -2
v 7.1 2.5 -2
v 3.3 2.5 -5.8
v 3.3 3.5 -5.8
v 7.1 2.5 -5.8
v 7.1 3.5 -5.8
v 3.1 1.5 -6
v 3.1 3.5 -6
v 7.1 1.5 -6
v 7.1 3.5 -6
v 3.1 1.5 -2
v 7.1 1.5 -2
v 3.1 1.5 -6
v 7.1 1.5 -6
v 3.3 2.5 -2
v 7.1 2.5 -2
v 3.3 2.5 -5.8
v 7.1 2.5 -5.8
v 3.1 3.5 -2
v 3.3 3.5 -2
v 3.3 3.5 -5.8
v 7.1 3.5 -5.8
v 3.1 3.5 -6
v 7.1 3.5 -6

# faces
f 3/1/1 2/1/1 1/1/1
f 4/1/1 2/1/1 3/1/1
f 5/1/2 6/1/2 7/1/2
f 7/1/2 6/1/2 8/1/2
f 9/1/2 10/1/2 11/1/2
f 11/1/2 10/1/2 12/1/2
f 11/2/2 12/2/2 13/2/2
f 12/1/2 10/1/2 14/1/2
f 13/2/2 12/2/2 14/2/2
f 14/1/2 10/1/2 15/1/2
f 15/1/2 10/1/2 16/1/2
f 19/1/3 18/1/3 17/1/3
f 20/1/3 18/1/3 19/1/3
f 21/1/3 18/1/3 20/1/3
f 22/1/3 19/1/3 17/1/3
f 23/2/3 20/2/3 19/2/3
f 23/1/3 19/1/3 22/1/3
f 24/2/3 20/2/3 23/2/3
f 27/1/3 26/1/3 25/1/3
f 28/1/3 26/1/3 27/1/3
f 29/1/4 30/1/4 31/1/4
f 31/1/4 30/1/4 32/1/4
f 35/1/5 34/1/5 33/1/5
f 36/1/5 34/1/5 35/1/5
f 37/2/6 38/2/6 39/2/6
f 39/2/6 38/2/6 40/2/6
f 41/1/6 42/1/6 43/1/6
f 41/1/6 43/1/6 45/1/6
f 43/1/6 44/1/6 45/1/6
f 45/1/6 44/1/6 46/1/6
