# MagicaVoxel @ Ephtracy

# group
o 

# material
mtllib Ground_1-0.mtl
usemtl palette

# normals
vn -1 0 0
vn 1 0 0
vn 0 0 1
vn 0 0 -1
vn 0 -1 0
vn 0 1 0

# texcoords
vt 0.970703 0.5
vt 0.974609 0.5

# verts
v 3.1 1.5 2
v 3.1 1.5 -2
v 3.1 3.5 2
v 3.1 3.5 -2
v 3.3 2.5 2
v 3.3 2.5 -2
v 3.3 3.5 2
v 3.3 3.5 -2
v 7.1 1.5 2
v 7.1 1.5 -2
v 7.1 2.3 2
v 7.1 2.3 -2
v 7.1 2.5 2
v 7.1 2.5 -2
v 3.1 1.5 2
v 3.1 3.5 2
v 3.3 2.3 2
v 3.3 2.5 2
v 3.3 3.5 2
v 7.1 1.5 2
v 7.1 2.3 2
v 7.1 2.5 2
v 3.1 1.5 -2
v 3.1 3.5 -2
v 3.3 2.3 -2
v 3.3 2.5 -2
v 3.3 3.5 -2
v 7.1 1.5 -2
v 7.1 2.3 -2
v 7.1 2.5 -2
v 3.1 1.5 2
v 7.1 1.5 2
v 3.1 1.5 -2
v 7.1 1.5 -2
v 3.3 2.5 2
v 7.1 2.5 2
v 3.3 2.5 -2
v 7.1 2.5 -2
v 3.1 3.5 2
v 3.3 3.5 2
v 3.1 3.5 -2
v 3.3 3.5 -2

# faces
f 3/1/1 2/1/1 1/1/1
f 4/1/1 2/1/1 3/1/1
f 5/1/2 6/1/2 7/1/2
f 7/1/2 6/1/2 8/1/2
f 9/1/2 10/1/2 11/1/2
f 11/1/2 10/1/2 12/1/2
f 11/2/2 12/2/2 13/2/2
f 13/2/2 12/2/2 14/2/2
f 17/1/3 16/1/3 15/1/3
f 18/1/3 16/1/3 17/1/3
f 19/1/3 16/1/3 18/1/3
f 20/1/3 17/1/3 15/1/3
f 21/2/3 18/2/3 17/2/3
f 21/1/3 17/1/3 20/1/3
f 22/2/3 18/2/3 21/2/3
f 23/1/4 24/1/4 25/1/4
f 25/1/4 24/1/4 26/1/4
f 26/1/4 24/1/4 27/1/4
f 23/1/4 25/1/4 28/1/4
f 25/2/4 26/2/4 29/2/4
f 28/1/4 25/1/4 29/1/4
f 29/2/4 26/2/4 30/2/4
f 33/1/5 32/1/5 31/1/5
f 34/1/5 32/1/5 33/1/5
f 35/2/6 36/2/6 37/2/6
f 37/2/6 36/2/6 38/2/6
f 39/1/6 40/1/6 41/1/6
f 41/1/6 40/1/6 42/1/6
